<?xml version="1.0" encoding="UTF-8"?>
<svg width="245px" height="230px" viewBox="0 0 245 230" version="1.1" xmlns="http://www.w3.org/2000/svg" xmlns:xlink="http://www.w3.org/1999/xlink">
    <title>Fill 14</title>
    <g id="New-Design" stroke="none" stroke-width="1" fill="none" fill-rule="evenodd" opacity="0.229999989">
        <g id="Sharing-Charabia" transform="translate(-50.000000, -207.000000)" fill="#F3F3F3">
            <g id="Fill-9" transform="translate(40.000000, 152.000000)">
                <path d="M31.1197692,277.63902 C11.3525726,264.959815 8.06730063,248.356342 10.8663801,227.717471 C14.1933257,203.178643 28.6401877,185.081865 39.9615266,165.276467 C45.3339534,155.879061 54.2278027,147.912451 60.9928236,138.80676 C72.8906479,122.779773 85.8754596,107.624459 98.8429073,92.4344171 C114.501778,74.0980154 133.143786,61.1548773 156.626882,55.3934966 C166.124999,53.0632455 177.505376,61.3354631 185.913033,73.5145845 C207.57638,104.891363 221.981568,139.935421 238.720481,173.8404 C244.683284,185.915338 253.722991,196.191363 254.299476,210.860484 C254.813451,223.966844 246.80864,239.108266 234.79274,244.084794 C225.895418,247.769438 217.432196,254.3504 208.323033,255.305421 C189.330271,257.29881 170.698681,260.045798 152.282405,265.178601 C121.489058,273.756425 90.3241207,280.8722 58.5583885,284.71312 C47.9871751,285.991112 38.3536186,281.257681 31.1197692,277.63902" id="Fill-14"></path>
            </g>
        </g>
    </g>
</svg>