<?xml version="1.0" encoding="UTF-8"?>
<svg width="173px" height="108px" viewBox="0 0 173 108" version="1.1" xmlns="http://www.w3.org/2000/svg" xmlns:xlink="http://www.w3.org/1999/xlink">
    <title>Group 11</title>
    <g id="New-Design" stroke="none" stroke-width="1" fill="none" fill-rule="evenodd" opacity="0.400000006">
        <g id="Sharing-Charabia" transform="translate(-137.000000, -198.000000)" fill="#FFFFFF">
            <g id="Group-8" transform="translate(40.000000, 152.000000)">
                <g id="Group-11" transform="translate(97.534247, 46.115288)">
                    <path d="M37.7877176,67.2190433 C39.4610855,65.5374753 41.1701329,64.3572444 43.0004905,63.2988663 C50.8392737,58.7624625 57.9537633,53.1537545 65.5998773,48.3840898 C72.9641233,43.7885004 79.5327167,37.7654931 88.3776614,35.4676984 C91.810028,34.5764326 94.9962061,32.6999002 97.9112202,30.5413658 C99.0922112,29.664026 100.408784,28.7762417 101.80742,28.4106835 C107.962132,26.7813381 113.092842,23.3416091 118.269935,19.9506212 C119.404543,19.2090602 120.496335,18.3665354 121.716574,17.7955683 C122.826206,17.2803052 124.135643,16.8694874 124.956271,18.6276485 C123.643266,20.6887007 121.570288,21.9838213 119.490174,23.2684974 C113.585219,26.9101539 107.637448,30.4856617 101.907323,34.3988757 C95.3315933,38.8830569 88.1029294,42.2531557 80.7315475,45.2751039 C73.8061591,48.1160137 67.1590708,51.3050742 61.1292376,55.7996999 C54.8639198,60.468401 47.692343,63.7375362 40.5671496,66.9962268 C39.8178804,67.3374145 39.079315,67.9257892 37.7877176,67.2190433" id="Fill-75"></path>
                    <path d="M106.700505,59.4928827 C103.571414,62.9500192 99.7108935,65.3801112 95.7647423,67.6674614 C83.8406579,74.578253 71.5133953,80.8902254 61.0700097,90.0013295 C57.3736149,93.2252051 52.6104034,94.6909196 48.3574086,97.0061218 C41.5818742,100.693038 34.4531128,103.673208 27.2993757,106.576785 C26.096977,107.067677 24.8303553,107.669978 23.1355797,107.565533 C23.6101168,104.905661 25.6795271,103.972618 27.4385257,102.813276 C34.1712448,98.3882802 41.5140831,95.0181813 48.5928932,91.1850419 C52.9529265,88.8210986 56.5743944,85.3604805 60.9808109,83.0104632 C70.1754146,78.1085012 79.3343388,73.1403906 88.4575835,68.1130943 C92.3680552,65.9510784 96.132241,63.5314309 100.003465,61.2997849 C102.008652,60.1439245 104.070927,59.0368052 106.700505,59.4928827" id="Fill-77"></path>
                    <path d="M69.4673713,63.5763424 C69.4850165,65.3797631 68.271914,65.7836179 67.4833973,66.4485857 C59.0059514,73.5996014 49.2012285,78.7104538 39.3786659,83.8004172 C31.9823083,87.630075 24.6466059,91.5676596 17.5927714,95.9856921 C17.068283,96.3129538 16.5081151,96.5914743 15.9479471,96.8560689 C11.5665062,98.9101581 6.94601269,100.487281 2.96061406,103.314265 C2.18280125,103.867824 1.15879999,104.407458 0.359579496,103.244634 C-0.378985873,102.175812 0.0884153992,101.399436 1.14096025,100.887654 C5.76502169,98.6316375 9.15100496,94.6487934 13.6930036,92.2883316 C20.2080778,88.9043066 25.6955828,83.957085 32.2713122,80.6531348 C42.2330248,75.650209 51.7166323,69.7107579 62.224241,65.7662103 C64.4649128,64.9236856 66.602114,63.5450088 69.4673713,63.5763424" id="Fill-79"></path>
                    <path d="M172.034996,0.611545444 C170.714855,2.33489147 168.995104,3.30275044 167.271785,4.2601649 C161.398942,7.50841104 155.404788,10.5721373 149.671094,14.0466814 C143.184564,17.9807844 138.046718,23.6382335 131.827783,27.9553023 C130.000993,29.2225709 128.195611,30.5420621 126.261783,31.6456999 C119.985762,35.2246892 114.027287,39.2179778 108.56119,43.9180124 C106.598818,45.6030619 104.500865,47.1767031 102.131747,48.336045 C101.004275,48.8896046 99.8518274,49.3700526 98.5530941,49.2621259 C96.8476147,49.1193841 96.0412583,48.0923395 96.5907224,46.5082537 C97.0224442,45.2653557 97.6182916,44.0711988 98.9348646,43.3505268 C111.162225,36.6695146 121.951701,27.8299681 133.982824,20.8808799 C142.585148,15.9127692 150.570217,10.0255407 159.247469,5.19320881 C162.505006,3.38282511 165.808926,1.64555306 169.344763,0.392210496 C170.13328,0.113689927 170.95034,-0.429425183 172.034996,0.611545444" id="Fill-81"></path>
                    <path d="M139.143148,40.2237852 C134.743868,44.2275184 131.033201,47.8587304 125.738365,49.9302271 C126.170087,45.3346377 132.824311,40.4291942 139.143148,40.2237852" id="Fill-83"></path>
                    <path d="M90.2825892,52.1047764 C88.8554097,54.4582752 86.7003687,55.5305794 84.1385816,56.282585 C84.1778291,52.7279662 86.3649816,51.2657332 90.2825892,52.1047764" id="Fill-85"></path>
                </g>
            </g>
        </g>
    </g>
</svg>