<?xml version="1.0" encoding="UTF-8"?>
<svg width="171px" height="102px" viewBox="0 0 171 102" version="1.1" xmlns="http://www.w3.org/2000/svg" xmlns:xlink="http://www.w3.org/1999/xlink">
    <title>Fill 9</title>
    <g id="New-Design" stroke="none" stroke-width="1" fill="none" fill-rule="evenodd" opacity="0.200000003">
        <g id="Sharing-Charabia" transform="translate(-139.000000, -425.000000)" fill="#EF652D">
            <g id="Fill-9" transform="translate(40.000000, 152.000000)">
                <path d="M202.614533,300.184826 C203.656374,292.925883 206.917479,286.836727 211.655715,281.370761 C219.0378,272.868921 228.193157,271.810543 238.436737,274.996122 C243.356938,276.527985 248.177237,278.275701 253.375738,278.978966 C259.680304,279.835416 264.386428,283.114996 267.508383,288.824668 C268.97481,291.50891 270.280679,293.886779 269.852525,297.016654 C269.510002,299.526821 268.050711,300.526013 265.710137,300.526013 C258.963146,300.529495 252.59079,298.611184 246.400399,296.341242 C237.84089,293.197441 236.146114,295.509162 231.753969,302.649733 C228.578495,307.812808 227.236946,313.202181 228.846091,319.406226 C229.934316,323.636258 225.35307,326.717391 220.311558,326.139461 C212.858113,325.28301 206.710538,321.606539 200.677137,317.745547 C195.817591,314.636562 190.925933,313.334478 185.752408,316.634947 C182.37356,318.793481 181.360263,322.473434 180.371941,326.052423 C178.712845,332.040616 180.197112,338.05666 180.382645,344.044852 C180.593154,350.976533 175.398221,358.949184 170.057002,360.084155 C160.416404,362.1278 152.010317,359.387854 143.968161,354.607745 C141.406374,353.082845 138.801771,351.61713 136.314911,349.980822 C133.399897,348.065993 131.633763,348.459403 130.556242,351.791206 C128.972073,356.658352 126.481645,361.118163 124.412234,365.765975 C124.105391,366.455314 124.073279,367.391839 124.258813,368.129918 C125.300654,372.356468 123.313306,375.145155 118.903322,374.939746 C109.362627,374.497595 102.961727,368.784442 99.647103,360.27912 C98.8871299,358.329476 100.499843,356.418128 101.117098,354.538115 C103.404153,347.547248 106.094386,340.706087 110.693472,334.784043 C115.6886,328.350218 125.354173,326.515464 134.480986,329.380744 C140.54293,331.281647 144.371339,335.797162 148.977561,339.410966 C152.149467,341.903725 153.209148,341.809725 154.611352,338.136735 C157.872457,329.589635 160.901645,320.938089 164.583768,312.561583 C167.002837,307.050358 170.617169,301.869875 176.25096,299.116003 C184.689159,294.986935 193.330731,296.149759 201.729682,299.819267 C201.968734,299.920231 202.211355,300.017713 202.614533,300.184826"></path>
            </g>
        </g>
    </g>
</svg>